<svg width="227" height="76" viewBox="0 0 227 76" fill="none" xmlns="http://www.w3.org/2000/svg">
<g filter="url(#filter0_d_3_2)">
<path fill-rule="evenodd" clip-rule="evenodd" d="M4.15309 0C1.8594 0 0 1.86082 0 4.15625V71.8438C0 74.1392 1.8594 76 4.15309 76C6.44678 76 8.30618 74.1392 8.30618 71.8438V63.2622L33.2247 44.5591V64.1832H42.7175V44.6086L67.636 63.3117V71.8438C67.636 74.1392 69.4954 76 71.7891 76C74.0828 76 75.9422 74.1392 75.9422 71.8438V4.15625C75.9422 1.86082 74.0828 0 71.7891 0C69.4954 0 67.636 1.86082 67.636 4.15625V13.3158L42.7175 31.9871V11.9332H33.2247V32.0365L8.30618 13.3652V4.15625C8.30618 1.86082 6.44678 0 4.15309 0ZM29.3716 38.2964L8.30618 54.1075V22.5122L29.3716 38.2964ZM67.636 54.1569V22.4628L46.5047 38.2964L67.636 54.1569ZM107.721 30.2488L110.961 36.2323L120.797 52.6772H124.539V25.7322H121.376V48.1607H121.26L118.02 42.1772L108.183 25.7322H104.442V52.6772H107.605V30.2488H107.721ZM135.264 52.407C136.369 52.896 137.591 53.1405 138.928 53.1405C140.265 53.1405 141.474 52.896 142.554 52.407C143.66 51.918 144.611 51.2232 145.408 50.3225C146.206 49.396 146.823 48.3022 147.26 47.0412C147.697 45.7544 147.916 44.3132 147.916 42.7176C147.916 41.1478 147.697 39.7194 147.26 38.4327C146.823 37.1459 146.206 36.0521 145.408 35.1514C144.611 34.2249 143.66 33.5172 142.554 33.0282C141.474 32.5393 140.265 32.2948 138.928 32.2948C137.591 32.2948 136.369 32.5393 135.264 33.0282C134.158 33.5172 133.206 34.2249 132.409 35.1514C131.638 36.0521 131.033 37.1459 130.596 38.4327C130.159 39.7194 129.94 41.1478 129.94 42.7176C129.94 44.3132 130.159 45.7544 130.596 47.0412C131.033 48.3022 131.638 49.396 132.409 50.3225C133.206 51.2232 134.158 51.918 135.264 52.407ZM143.017 48.8555C141.963 49.8849 140.6 50.3997 138.928 50.3997C137.257 50.3997 135.894 49.8849 134.839 48.8555C133.785 47.8261 133.258 46.2562 133.258 44.1459V41.2893C133.258 39.179 133.785 37.6091 134.839 36.5797C135.894 35.5503 137.257 35.0356 138.928 35.0356C140.6 35.0356 141.963 35.5503 143.017 36.5797C144.071 37.6091 144.598 39.179 144.598 41.2893V44.1459C144.598 46.2562 144.071 47.8261 143.017 48.8555ZM153.191 32.758H150.105L157.087 52.6772H160.674L167.695 32.758H164.725L161.176 42.6404L159.016 49.4346H158.823L156.663 42.6404L153.191 32.758ZM171.752 27.6238C172.061 27.9326 172.549 28.087 173.218 28.087C173.887 28.087 174.362 27.9326 174.645 27.6238C174.954 27.2892 175.108 26.8646 175.108 26.3499V25.848C175.108 25.3333 174.954 24.9216 174.645 24.6127C174.362 24.2782 173.887 24.1109 173.218 24.1109C172.549 24.1109 172.061 24.2782 171.752 24.6127C171.469 24.9216 171.328 25.3333 171.328 25.848V26.3499C171.328 26.8646 171.469 27.2892 171.752 27.6238ZM184.404 24.1109H181.319V52.6772H184.404V45.5743L187.375 42.5246L193.971 52.6772H197.712L189.612 40.6331L196.98 32.758H193.238L187.606 38.8187L184.559 42.2158H184.404V24.1109ZM213.43 51.7508C213.944 52.3684 214.78 52.6772 215.937 52.6772H217.673V49.975H215.397V39.0117C215.397 36.9014 214.728 35.2543 213.391 34.0705C212.054 32.8867 210.177 32.2948 207.759 32.2948C205.959 32.2948 204.468 32.6808 203.285 33.4529C202.102 34.1992 201.24 35.1128 200.7 36.1937L202.552 37.9308C203.092 37.0301 203.761 36.3095 204.558 35.7691C205.381 35.2286 206.396 34.9584 207.605 34.9584C209.2 34.9584 210.382 35.3316 211.154 36.0779C211.925 36.8242 212.311 37.9051 212.311 39.3205V41.2893H208.377C205.471 41.2893 203.323 41.7912 201.935 42.7948C200.572 43.7985 199.89 45.2397 199.89 47.1184C199.89 48.9713 200.469 50.4383 201.626 51.5191C202.809 52.6 204.455 53.1405 206.564 53.1405C207.952 53.1405 209.148 52.8317 210.151 52.214C211.154 51.5964 211.874 50.6699 212.311 49.4346H212.504C212.633 50.3611 212.941 51.1331 213.43 51.7508ZM174.761 32.758H171.675V52.6772H174.761V32.758ZM209.187 50.2452C208.544 50.4254 207.837 50.5155 207.065 50.5155C205.856 50.5155 204.892 50.2452 204.172 49.7048C203.478 49.1644 203.131 48.4052 203.131 47.4272V46.6166C203.131 45.6386 203.529 44.8923 204.326 44.3776C205.149 43.8629 206.448 43.6055 208.222 43.6055H212.311V46.8868C212.311 47.4015 212.183 47.8776 211.925 48.3151C211.668 48.7526 211.308 49.1386 210.845 49.4732C210.382 49.8077 209.83 50.0651 209.187 50.2452ZM222.608 52.5228C222.994 52.9346 223.598 53.1405 224.421 53.1405C225.244 53.1405 225.836 52.9346 226.196 52.5228C226.581 52.1111 226.774 51.5706 226.774 50.9015V50.3997C226.774 49.7305 226.581 49.1901 226.196 48.7783C225.836 48.3666 225.244 48.1607 224.421 48.1607C223.598 48.1607 222.994 48.3666 222.608 48.7783C222.248 49.1901 222.068 49.7305 222.068 50.3997V50.9015C222.068 51.5706 222.248 52.1111 222.608 52.5228Z" fill="url(#paint0_linear_3_2)"/>
</g>
<defs>
<filter id="filter0_d_3_2" x="0" y="0" width="226.774" height="77" filterUnits="userSpaceOnUse" color-interpolation-filters="sRGB">
<feFlood flood-opacity="0" result="BackgroundImageFix"/>
<feColorMatrix in="SourceAlpha" type="matrix" values="0 0 0 0 0 0 0 0 0 0 0 0 0 0 0 0 0 0 127 0" result="hardAlpha"/>
<feOffset dy="1"/>
<feComposite in2="hardAlpha" operator="out"/>
<feColorMatrix type="matrix" values="0 0 0 0 0.230139 0 0 0 0 0.368222 0 0 0 0 0.575347 0 0 0 0.36 0"/>
<feBlend mode="normal" in2="BackgroundImageFix" result="effect1_dropShadow_3_2"/>
<feBlend mode="normal" in="SourceGraphic" in2="effect1_dropShadow_3_2" result="shape"/>
</filter>
<linearGradient id="paint0_linear_3_2" x1="66.8222" y1="0" x2="66.8222" y2="76" gradientUnits="userSpaceOnUse">
<stop stop-color="#4472B0"/>
<stop offset="1" stop-color="#6559F4"/>
</linearGradient>
</defs>
</svg>
